<svg width="42" height="42" viewBox="0 0 42 42" fill="none" xmlns="http://www.w3.org/2000/svg">
<g clip-path="url(#clip0_19_244)">
<path fill-rule="evenodd" clip-rule="evenodd" d="M19.5011 4.00312C20.4985 3.91642 21.5015 3.91642 22.4989 4.00312C22.5934 4.011 22.7824 4.09762 22.8585 4.38637L23.6171 7.287C24.003 8.757 25.0609 9.82537 26.2342 10.4081C26.691 10.6339 27.1294 10.8885 27.5494 11.1694C28.644 11.8991 30.0956 12.2797 31.5656 11.8781L34.4584 11.0828C34.7471 11.004 34.9177 11.1248 34.9702 11.2035C35.5451 12.0173 36.0465 12.8861 36.4744 13.7996C36.5111 13.881 36.5321 14.0884 36.3195 14.2984L34.1801 16.4141C33.1012 17.4799 32.7049 18.9263 32.7889 20.2361C32.8212 20.7449 32.8212 21.2551 32.7889 21.7639C32.7049 23.0738 33.1012 24.5201 34.1801 25.5859L36.3195 27.7016C36.5295 27.9116 36.5111 28.119 36.4744 28.2004C36.0504 29.1092 35.5471 29.9788 34.9702 30.7991C34.9177 30.8752 34.7445 30.9934 34.4584 30.9172L31.563 30.1219C30.0956 29.7203 28.644 30.1009 27.5494 30.8306C27.1294 31.1115 26.691 31.3661 26.2369 31.5919C25.0582 32.1746 24.003 33.2404 23.6171 34.713L22.8585 37.6136C22.7824 37.9024 22.5934 37.989 22.4989 37.9969C21.5015 38.0833 20.4985 38.0833 19.5011 37.9969C19.4066 37.989 19.2176 37.8997 19.1415 37.6136L18.3829 34.713C17.997 33.243 16.9391 32.1746 15.7657 31.5919C15.3115 31.3666 14.8722 31.1123 14.4506 30.8306C13.356 30.1009 11.9044 29.7203 10.4344 30.1219L7.5416 30.9172C7.25285 30.996 7.08223 30.8753 7.02973 30.7965C6.453 29.977 5.94967 29.1083 5.5256 28.2004C5.48885 28.119 5.46785 27.9116 5.68048 27.7016L7.81985 25.5859C8.89873 24.5201 9.2951 23.0738 9.2111 21.7639C9.17876 21.2551 9.17876 20.7449 9.2111 20.2361C9.2951 18.9263 8.89873 17.4799 7.81985 16.4141L5.68048 14.2984C5.47048 14.0884 5.48885 13.881 5.5256 13.7996C5.9489 12.8905 6.45226 12.0208 7.02973 11.2009C7.08223 11.1248 7.25548 11.004 7.5416 11.0828L10.437 11.8781C11.9044 12.2797 13.356 11.8991 14.4506 11.1694C14.8706 10.8885 15.309 10.6339 15.7631 10.4081C16.9417 9.82537 17.997 8.75963 18.3829 7.287L19.1415 4.38637C19.2176 4.09762 19.4066 4.011 19.5011 4.00312ZM21 0C20.3805 0 19.7662 0.02625 19.1599 0.07875C17.2095 0.249375 15.7736 1.69313 15.3326 3.38888L14.5714 6.29213C14.5267 6.46538 14.3666 6.70688 14.0175 6.88013C13.4118 7.17987 12.8261 7.51832 12.264 7.89337C11.9411 8.10862 11.6524 8.12963 11.4765 8.07975L8.58373 7.287C6.89323 6.82237 4.92973 7.3395 3.80623 8.94075C3.0974 9.94916 2.479 11.0182 1.95823 12.1354C1.13135 13.9073 1.66685 15.8681 2.9111 17.0993L5.05048 19.215C5.18173 19.341 5.30773 19.6009 5.28148 19.9867C5.23858 20.6616 5.23858 21.3384 5.28148 22.0132C5.30773 22.3991 5.18173 22.659 5.05048 22.785L2.9111 24.9007C1.66685 26.1319 1.13135 28.0927 1.95823 29.8646C2.48323 30.9881 3.10273 32.0565 3.80623 33.0619C4.92973 34.6605 6.89323 35.1776 8.58373 34.7156L11.4791 33.9202C11.6524 33.8704 11.9411 33.8914 12.264 34.1066C12.8231 34.482 13.4085 34.8206 14.0175 35.1199C14.3666 35.2931 14.5267 35.5346 14.574 35.7079L15.3326 38.6111C15.7762 40.3069 17.2095 41.7506 19.1599 41.9186C20.3843 42.0251 21.6157 42.0251 22.8401 41.9186C24.7905 41.7506 26.2264 40.3069 26.6674 38.6111L27.4286 35.7079C27.4732 35.5346 27.6334 35.2931 27.9825 35.1199C28.5882 34.8202 29.1739 34.4818 29.736 34.1066C30.0589 33.8914 30.3476 33.8704 30.5235 33.9202L33.4162 34.713C35.1067 35.1776 37.0702 34.6605 38.1937 33.0592C38.8972 32.0565 39.5194 30.9881 40.0417 29.8646C40.8686 28.0927 40.3331 26.1319 39.0862 24.9007L36.9495 22.785C36.8182 22.659 36.6922 22.3991 36.7185 22.0132C36.7613 21.3384 36.7613 20.6616 36.7185 19.9867C36.6922 19.6009 36.8209 19.341 36.9495 19.215L39.0862 17.0993C40.3331 15.8681 40.8686 13.9073 40.0417 12.1354C39.5209 11.0174 38.9025 9.94748 38.1937 8.93812C37.0702 7.3395 35.1067 6.82238 33.4162 7.28438L30.5209 8.07975C30.3476 8.12963 30.0589 8.10862 29.736 7.89337C29.1739 7.5183 28.5881 7.17985 27.9825 6.88013C27.6334 6.70688 27.4732 6.46538 27.426 6.29213L26.67 3.38625C26.2237 1.69313 24.7905 0.249375 22.8401 0.081375C22.2282 0.0276629 21.6142 0.000512391 21 0V0ZM24.9375 21C24.9375 22.0443 24.5226 23.0458 23.7842 23.7842C23.0458 24.5227 22.0443 24.9375 21 24.9375C19.9557 24.9375 18.9542 24.5227 18.2157 23.7842C17.4773 23.0458 17.0625 22.0443 17.0625 21C17.0625 19.9557 17.4773 18.9542 18.2157 18.2158C18.9542 17.4773 19.9557 17.0625 21 17.0625C22.0443 17.0625 23.0458 17.4773 23.7842 18.2158C24.5226 18.9542 24.9375 19.9557 24.9375 21ZM28.875 21C28.875 23.0886 28.0453 25.0916 26.5684 26.5685C25.0916 28.0453 23.0886 28.875 21 28.875C18.9114 28.875 16.9084 28.0453 15.4315 26.5685C13.9547 25.0916 13.125 23.0886 13.125 21C13.125 18.9114 13.9547 16.9084 15.4315 15.4315C16.9084 13.9547 18.9114 13.125 21 13.125C23.0886 13.125 25.0916 13.9547 26.5684 15.4315C28.0453 16.9084 28.875 18.9114 28.875 21Z" fill="#0077B6"/>
</g>
<defs>
<clipPath id="clip0_19_244">
<rect width="42" height="42" fill="white"/>
</clipPath>
</defs>
</svg>
