<svg width="42" height="42" viewBox="0 0 42 42" fill="none" xmlns="http://www.w3.org/2000/svg">
<path d="M40.9839 8.60707C40.3322 6.92276 39.3926 5.39646 38.2176 4.11361C37.0417 2.82693 35.6553 1.80442 34.1338 1.10169C32.556 0.370114 30.8639 -0.00435119 29.1554 3.81448e-05C26.7586 3.81448e-05 24.4202 0.732666 22.388 2.11652C21.9018 2.44756 21.44 2.81116 21.0024 3.20732C20.5649 2.81116 20.103 2.44756 19.6168 2.11652C17.5847 0.732666 15.2462 3.81448e-05 12.8494 3.81448e-05C11.1235 3.81448e-05 9.45108 0.369066 7.87104 1.10169C6.34448 1.80719 4.96862 2.82201 3.78724 4.11361C2.6107 5.39502 1.67085 6.92168 1.02095 8.60707C0.345178 10.3599 0 12.2214 0 14.1371C0 15.9442 0.330594 17.8273 0.986919 19.743C1.53629 21.3439 2.32388 23.0046 3.33024 24.6815C4.92487 27.3352 7.11748 30.1029 9.84002 32.9086C14.3516 37.5595 18.8195 40.7722 19.0091 40.9024L20.1613 41.7273C20.6718 42.0909 21.3281 42.0909 21.8386 41.7273L22.9908 40.9024C23.1804 40.7667 27.6434 37.5595 32.1599 32.9086C34.8825 30.1029 37.0751 27.3352 38.6697 24.6815C39.6761 23.0046 40.4685 21.3439 41.013 19.743C41.6694 17.8273 41.9999 15.9442 41.9999 14.1371C42.0048 12.2214 41.6596 10.3599 40.9839 8.60707ZM21.0024 37.4346C21.0024 37.4346 3.69487 25.0559 3.69487 14.1371C3.69487 8.60707 7.79325 4.12446 12.8494 4.12446C16.4033 4.12446 19.4856 6.33863 21.0024 9.57305C22.5192 6.33863 25.6015 4.12446 29.1554 4.12446C34.2116 4.12446 38.3099 8.60707 38.3099 14.1371C38.3099 25.0559 21.0024 37.4346 21.0024 37.4346Z" fill="#0077B6"/>
</svg>
