<svg width="33" height="8" viewBox="0 0 33 8" fill="none" xmlns="http://www.w3.org/2000/svg">
<path d="M16.9619 8C18.0228 8 19.0402 7.57857 19.7903 6.82843C20.5405 6.07828 20.9619 5.06087 20.9619 4C20.9619 2.93913 20.5405 1.92172 19.7903 1.17157C19.0402 0.421428 18.0228 0 16.9619 0C15.901 0 14.8836 0.421428 14.1335 1.17157C13.3833 1.92172 12.9619 2.93913 12.9619 4C12.9619 5.06087 13.3833 6.07828 14.1335 6.82843C14.8836 7.57857 15.901 8 16.9619 8ZM4.96191 8C6.02278 8 7.0402 7.57857 7.79034 6.82843C8.54049 6.07828 8.96191 5.06087 8.96191 4C8.96191 2.93913 8.54049 1.92172 7.79034 1.17157C7.0402 0.421428 6.02278 0 4.96191 0C3.90105 0 2.88363 0.421428 2.13349 1.17157C1.38334 1.92172 0.961914 2.93913 0.961914 4C0.961914 5.06087 1.38334 6.07828 2.13349 6.82843C2.88363 7.57857 3.90105 8 4.96191 8ZM28.9619 8C30.0228 8 31.0402 7.57857 31.7903 6.82843C32.5405 6.07828 32.9619 5.06087 32.9619 4C32.9619 2.93913 32.5405 1.92172 31.7903 1.17157C31.0402 0.421428 30.0228 0 28.9619 0C27.901 0 26.8836 0.421428 26.1335 1.17157C25.3833 1.92172 24.9619 2.93913 24.9619 4C24.9619 5.06087 25.3833 6.07828 26.1335 6.82843C26.8836 7.57857 27.901 8 28.9619 8Z" fill="#48CAE4"/>
</svg>
