<svg width="64" height="64" viewBox="0 0 64 64" fill="none" xmlns="http://www.w3.org/2000/svg">
<path d="M18.5839 18.584C18.7697 18.3977 18.9904 18.2499 19.2334 18.1491C19.4764 18.0483 19.7368 17.9964 19.9999 17.9964C20.263 17.9964 20.5235 18.0483 20.7664 18.1491C21.0094 18.2499 21.2301 18.3977 21.4159 18.584L31.9999 29.172L42.5839 18.584C42.7699 18.398 42.9906 18.2505 43.2336 18.1499C43.4765 18.0492 43.7369 17.9974 43.9999 17.9974C44.2629 17.9974 44.5233 18.0492 44.7662 18.1499C45.0092 18.2505 45.23 18.398 45.4159 18.584C45.6019 18.7699 45.7494 18.9907 45.85 19.2336C45.9506 19.4766 46.0024 19.737 46.0024 20C46.0024 20.2629 45.9506 20.5234 45.85 20.7663C45.7494 21.0093 45.6019 21.23 45.4159 21.416L34.8279 32L45.4159 42.584C45.6019 42.7699 45.7494 42.9907 45.85 43.2336C45.9506 43.4766 46.0024 43.737 46.0024 44C46.0024 44.2629 45.9506 44.5233 45.85 44.7663C45.7494 45.0093 45.6019 45.23 45.4159 45.416C45.23 45.6019 45.0092 45.7494 44.7662 45.8501C44.5233 45.9507 44.2629 46.0025 43.9999 46.0025C43.7369 46.0025 43.4765 45.9507 43.2336 45.8501C42.9906 45.7494 42.7699 45.6019 42.5839 45.416L31.9999 34.828L21.4159 45.416C21.23 45.6019 21.0092 45.7494 20.7662 45.8501C20.5233 45.9507 20.2629 46.0025 19.9999 46.0025C19.7369 46.0025 19.4765 45.9507 19.2336 45.8501C18.9906 45.7494 18.7699 45.6019 18.5839 45.416C18.398 45.23 18.2505 45.0093 18.1498 44.7663C18.0492 44.5233 17.9974 44.2629 17.9974 44C17.9974 43.737 18.0492 43.4766 18.1498 43.2336C18.2505 42.9907 18.398 42.7699 18.5839 42.584L29.1719 32L18.5839 21.416C18.3977 21.2302 18.2499 21.0095 18.1491 20.7665C18.0482 20.5235 17.9963 20.263 17.9963 20C17.9963 19.7369 18.0482 19.4764 18.1491 19.2334C18.2499 18.9905 18.3977 18.7698 18.5839 18.584Z" fill="#0077B6"/>
</svg>
